<mxfile host="app.diagrams.net" modified="2021-09-21T11:15:37.279Z" agent="5.0 (Macintosh; Intel Mac OS X 10_15_7) AppleWebKit/537.36 (KHTML, like Gecko) Chrome/93.0.4577.82 Safari/537.36" etag="hFVbsZLH044T0-dBuxQ3" version="15.2.9" type="github">
  <diagram id="ibmIAs5vzxbRUl51puMs" name="第 1 页">
    <mxGraphModel dx="1186" dy="694" grid="1" gridSize="10" guides="1" tooltips="1" connect="1" arrows="1" fold="1" page="1" pageScale="1" pageWidth="827" pageHeight="1169" math="0" shadow="0">
      <root>
        <mxCell id="0" />
        <mxCell id="1" parent="0" />
        <mxCell id="jqp1k1TRhJ0zXttBkaYL-87" value="TableName" style="shape=table;startSize=30;container=1;collapsible=0;childLayout=tableLayout;fontStyle=1;align=center;pointerEvents=1;strokeWidth=1;fontSize=25;fillColor=#d5e8d4;strokeColor=#82b366;" parent="1" vertex="1">
          <mxGeometry x="150" y="180" width="540" height="250" as="geometry" />
        </mxCell>
        <mxCell id="jqp1k1TRhJ0zXttBkaYL-88" value="" style="shape=partialRectangle;html=1;whiteSpace=wrap;collapsible=0;dropTarget=0;pointerEvents=0;fillColor=none;top=0;left=0;bottom=0;right=0;points=[[0,0.5],[1,0.5]];portConstraint=eastwest;strokeWidth=1;fontSize=25;" parent="jqp1k1TRhJ0zXttBkaYL-87" vertex="1">
          <mxGeometry y="30" width="540" height="73" as="geometry" />
        </mxCell>
        <mxCell id="jqp1k1TRhJ0zXttBkaYL-89" value="&lt;font style=&quot;font-size: 25px;&quot;&gt;ID&lt;/font&gt;" style="shape=partialRectangle;html=1;whiteSpace=wrap;connectable=0;fillColor=none;top=0;left=0;bottom=0;right=0;overflow=hidden;pointerEvents=1;strokeWidth=1;fontSize=25;" parent="jqp1k1TRhJ0zXttBkaYL-88" vertex="1">
          <mxGeometry width="180" height="73" as="geometry">
            <mxRectangle width="180" height="73" as="alternateBounds" />
          </mxGeometry>
        </mxCell>
        <mxCell id="jqp1k1TRhJ0zXttBkaYL-90" value="UserName" style="shape=partialRectangle;html=1;whiteSpace=wrap;connectable=0;fillColor=none;top=0;left=0;bottom=0;right=0;overflow=hidden;pointerEvents=1;strokeWidth=1;fontSize=25;" parent="jqp1k1TRhJ0zXttBkaYL-88" vertex="1">
          <mxGeometry x="180" width="180" height="73" as="geometry">
            <mxRectangle width="180" height="73" as="alternateBounds" />
          </mxGeometry>
        </mxCell>
        <mxCell id="jqp1k1TRhJ0zXttBkaYL-91" value="Age" style="shape=partialRectangle;html=1;whiteSpace=wrap;connectable=0;fillColor=none;top=0;left=0;bottom=0;right=0;overflow=hidden;pointerEvents=1;strokeWidth=1;fontSize=25;" parent="jqp1k1TRhJ0zXttBkaYL-88" vertex="1">
          <mxGeometry x="360" width="180" height="73" as="geometry">
            <mxRectangle width="180" height="73" as="alternateBounds" />
          </mxGeometry>
        </mxCell>
        <mxCell id="jqp1k1TRhJ0zXttBkaYL-92" value="" style="shape=partialRectangle;html=1;whiteSpace=wrap;collapsible=0;dropTarget=0;pointerEvents=0;fillColor=none;top=0;left=0;bottom=0;right=0;points=[[0,0.5],[1,0.5]];portConstraint=eastwest;strokeWidth=1;fontSize=25;" parent="jqp1k1TRhJ0zXttBkaYL-87" vertex="1">
          <mxGeometry y="103" width="540" height="74" as="geometry" />
        </mxCell>
        <mxCell id="jqp1k1TRhJ0zXttBkaYL-93" value="&lt;font style=&quot;font-size: 25px;&quot;&gt;1&lt;/font&gt;" style="shape=partialRectangle;html=1;whiteSpace=wrap;connectable=0;fillColor=none;top=0;left=0;bottom=0;right=0;overflow=hidden;pointerEvents=1;strokeWidth=1;fontSize=25;" parent="jqp1k1TRhJ0zXttBkaYL-92" vertex="1">
          <mxGeometry width="180" height="74" as="geometry">
            <mxRectangle width="180" height="74" as="alternateBounds" />
          </mxGeometry>
        </mxCell>
        <mxCell id="jqp1k1TRhJ0zXttBkaYL-94" value="Leon Ding" style="shape=partialRectangle;html=1;whiteSpace=wrap;connectable=0;fillColor=none;top=0;left=0;bottom=0;right=0;overflow=hidden;pointerEvents=1;strokeWidth=1;fontSize=25;" parent="jqp1k1TRhJ0zXttBkaYL-92" vertex="1">
          <mxGeometry x="180" width="180" height="74" as="geometry">
            <mxRectangle width="180" height="74" as="alternateBounds" />
          </mxGeometry>
        </mxCell>
        <mxCell id="jqp1k1TRhJ0zXttBkaYL-95" value="21" style="shape=partialRectangle;html=1;whiteSpace=wrap;connectable=0;fillColor=none;top=0;left=0;bottom=0;right=0;overflow=hidden;pointerEvents=1;strokeWidth=1;fontSize=25;" parent="jqp1k1TRhJ0zXttBkaYL-92" vertex="1">
          <mxGeometry x="360" width="180" height="74" as="geometry">
            <mxRectangle width="180" height="74" as="alternateBounds" />
          </mxGeometry>
        </mxCell>
        <mxCell id="jqp1k1TRhJ0zXttBkaYL-96" value="" style="shape=partialRectangle;html=1;whiteSpace=wrap;collapsible=0;dropTarget=0;pointerEvents=0;fillColor=none;top=0;left=0;bottom=0;right=0;points=[[0,0.5],[1,0.5]];portConstraint=eastwest;strokeWidth=1;fontSize=25;" parent="jqp1k1TRhJ0zXttBkaYL-87" vertex="1">
          <mxGeometry y="177" width="540" height="73" as="geometry" />
        </mxCell>
        <mxCell id="jqp1k1TRhJ0zXttBkaYL-97" value="&lt;font style=&quot;font-size: 25px;&quot;&gt;2&lt;/font&gt;" style="shape=partialRectangle;html=1;whiteSpace=wrap;connectable=0;fillColor=none;top=0;left=0;bottom=0;right=0;overflow=hidden;pointerEvents=1;strokeWidth=1;fontSize=25;" parent="jqp1k1TRhJ0zXttBkaYL-96" vertex="1">
          <mxGeometry width="180" height="73" as="geometry">
            <mxRectangle width="180" height="73" as="alternateBounds" />
          </mxGeometry>
        </mxCell>
        <mxCell id="jqp1k1TRhJ0zXttBkaYL-98" value="John" style="shape=partialRectangle;html=1;whiteSpace=wrap;connectable=0;fillColor=none;top=0;left=0;bottom=0;right=0;overflow=hidden;pointerEvents=1;strokeWidth=1;fontSize=25;" parent="jqp1k1TRhJ0zXttBkaYL-96" vertex="1">
          <mxGeometry x="180" width="180" height="73" as="geometry">
            <mxRectangle width="180" height="73" as="alternateBounds" />
          </mxGeometry>
        </mxCell>
        <mxCell id="jqp1k1TRhJ0zXttBkaYL-99" value="22" style="shape=partialRectangle;html=1;whiteSpace=wrap;connectable=0;fillColor=none;top=0;left=0;bottom=0;right=0;overflow=hidden;pointerEvents=1;strokeWidth=1;fontSize=25;" parent="jqp1k1TRhJ0zXttBkaYL-96" vertex="1">
          <mxGeometry x="360" width="180" height="73" as="geometry">
            <mxRectangle width="180" height="73" as="alternateBounds" />
          </mxGeometry>
        </mxCell>
      </root>
    </mxGraphModel>
  </diagram>
</mxfile>
